<svg class="svg-icon" style="width: 1.103515625em; height: 1em;vertical-align: middle;fill: currentColor;overflow: hidden;" viewBox="0 0 1130 1024" version="1.1" xmlns="http://www.w3.org/2000/svg"><path d="M565.244956 423.722385c140.958313 0 353.101987 214.615388 353.101987 387.988463 0 115.181868-35.663301 180.823528-99.751311 203.598606-22.104184 7.874174-40.394867 9.321892-68.537096 8.474448a258.400034 258.400034 0 0 0-8.262586-0.211862c-14.759663 0-29.554636-4.802187-50.034552-14.194699a703.343848 703.343848 0 0 1-24.222796-11.793607c7.273901 3.672261-19.173438-9.745615-25.317413-12.782292a449.357589 449.357589 0 0 0-51.164478-22.457286 166.487587 166.487587 0 0 0-30.825803-7.980105h10.098717c-9.180652 1.306477-19.420609 4.025363-30.861114 8.015415-14.830283 5.26122-30.578632 12.287949-51.129168 22.598527-6.143975 3.036677-32.591313 16.560483-25.282102 12.852913-10.239958 5.190599-17.407928 8.721619-24.258107 11.864226-20.479915 9.463133-35.310199 14.30063-50.105172 14.300631-1.69489 0-2.683575 0-8.262586 0.176551-28.142228 0.847445-46.432911-0.564963-68.537096-8.439138C247.80627 992.958098 212.142969 927.316439 212.142969 812.13457c0-173.373076 212.249604-388.412186 353.101987-388.412185z m0 70.620397c-101.658062 0-282.48159 183.189311-282.48159 317.791788 0 87.922395 20.444605 125.563067 52.788747 137.074192 11.581745 4.095983 22.845699 4.978738 42.725341 4.378465 6.567697-0.176551 7.697623-0.211861 10.416508-0.211862 4.943428 0 4.696256 0.105931 68.078064-31.567317 22.951629-11.475815 41.065761-19.59716 59.215203-25.988307a234.247858 234.247858 0 0 1 44.208369-11.369884l5.084668-0.706204 5.049359 0.706204c14.124079 2.047992 28.707192 5.861493 44.137748 11.263954 18.114132 6.355836 36.228264 14.441871 59.179893 25.847065 63.452427 31.532007 63.205256 31.426077 68.148684 31.426077 2.718885 0 3.848812 0 10.381198 0.211861 19.914952 0.600273 31.178905-0.317792 42.760651-4.413774 32.344142-11.511125 52.788747-49.151797 52.788747-137.074192C847.726546 677.178991 667.008949 494.342782 565.244956 494.342782z m-174.573622-129.058776c-76.552511 20.515225-172.525631-81.566559-196.042224-169.418334a145.513329 145.513329 0 1 1 281.139802-75.351964c23.516592 87.851774-8.545068 224.255072-85.097578 244.770298z m-18.255373-68.183994c27.400714-7.344521 49.893311-103.14109 35.133648-158.295621a74.892931 74.892931 0 1 0-144.736505 38.770598c14.794973 55.15453 82.166832 126.869544 109.602857 119.525023z m-159.81396 281.033872c-59.215203 34.180272-157.836588-26.906371-195.795051-92.618652a123.126663 123.126663 0 0 1 45.091123-168.253097 123.232594 123.232594 0 0 1 168.323718 45.091124c37.993774 65.71228 41.595414 181.600352-17.6551 215.745314zM174.007954 516.941309c15.112765-8.721619 12.817602-82.873036-8.227276-119.348471A52.541576 52.541576 0 1 0 74.786296 450.205034c21.044878 36.440125 84.108893 75.493205 99.221658 66.736275z m530.500426-151.692613c-76.552511-20.479915-108.614171-156.918523-85.097579-244.770298a145.513329 145.513329 0 0 1 281.139802 75.351964c-23.516592 87.816464-119.489712 189.968869-196.042223 169.418334z m18.255372-68.183994c27.436024 7.344521 94.807884-64.370492 109.602857-119.525023a74.892931 74.892931 0 0 0-144.736504-38.770598c-14.759663 55.15453 7.732934 150.9511 35.133647 158.295621z m195.018228 280.680769c-59.073962-34.109652-55.437012-149.785863-17.619789-215.392212a122.844181 122.844181 0 0 1 167.864685-45.020503 122.985422 122.985422 0 0 1 44.985193 167.970615c-37.852533 65.606349-136.156126 126.551752-195.230089 92.4421z m39.1237-61.157264c15.042145 8.686309 77.929609-30.29615 98.868557-66.595035a52.329714 52.329714 0 0 0-90.60597-52.329714c-20.974258 36.298884-23.304731 110.23844-8.262587 118.924749z" fill="#5E676F" /></svg>